<?xml version="1.0" standalone="no"?>
<!DOCTYPE svg PUBLIC "-//W3C//DTD SVG 20010904//EN"
 "http://www.w3.org/TR/2001/REC-SVG-20010904/DTD/svg10.dtd">
<svg version="1.0" xmlns="http://www.w3.org/2000/svg"
 width="500.000000pt" height="500.000000pt" viewBox="0 0 500.000000 500.000000"
 preserveAspectRatio="xMidYMid meet">
<metadata>
Created by potrace 1.11, written by Peter Selinger 2001-2013
</metadata>
<g transform="translate(0.000000,500.000000) scale(0.100000,-0.100000)"
fill="#000000" stroke="none">
<path d="M63 4980 c-68 -41 -63 173 -63 -2482 0 -2366 0 -2403 20 -2435 41
-68 -173 -63 2482 -63 2366 0 2403 0 2435 20 68 41 63 -173 63 2480 0 2653 5
2439 -63 2480 -32 20 -69 20 -2437 20 -2368 0 -2405 0 -2437 -20z m4822 -2480
l0 -2385 -2385 0 -2385 0 -3 2375 c-1 1306 0 2381 3 2388 3 10 486 12 2387 10
l2383 -3 0 -2385z"/>
<path d="M160 2500 l0 -2340 2340 0 2340 0 0 2340 0 2340 -2340 0 -2340 0 0
-2340z m3893 1680 c70 -33 127 -62 127 -64 0 -2 -33 -73 -74 -157 -147 -306
-246 -619 -371 -1180 -25 -111 -45 -201 -45 -202 0 -1 51 -2 113 -2 98 0 118
-3 160 -24 30 -15 58 -38 75 -64 25 -38 27 -48 27 -146 0 -128 -14 -161 -101
-241 l-58 -52 -17 51 c-21 66 -40 80 -109 80 -51 1 -126 -12 -136 -22 -2 -2
-11 -67 -18 -143 -34 -336 -28 -703 14 -784 69 -136 257 -144 523 -22 91 41
101 37 92 -38 -9 -70 -58 -161 -118 -217 -90 -86 -254 -155 -405 -173 -300
-34 -476 138 -522 510 -15 124 -13 233 11 538 12 150 19 276 16 279 -6 5 -598
-83 -602 -90 -1 -1 -44 -81 -95 -177 -318 -599 -620 -926 -955 -1035 -147 -48
-384 -51 -525 -6 -197 62 -368 246 -410 442 -7 32 -11 97 -8 150 3 79 9 104
35 161 52 112 144 195 205 186 32 -4 35 -41 6 -97 -18 -36 -23 -62 -23 -121 0
-66 4 -84 37 -153 45 -95 138 -196 212 -232 28 -14 88 -30 132 -37 106 -15
216 5 324 59 106 53 260 207 363 363 67 102 103 164 250 431 l36 66 -58 16
c-170 47 -250 282 -157 464 26 51 84 111 134 137 l29 15 -5 -49 c-10 -111 48
-218 130 -241 69 -18 80 -10 154 114 217 359 484 748 773 1120 24 31 42 60 39
63 -3 2 -88 9 -189 14 -300 16 -408 34 -511 86 -106 54 -168 155 -168 273 0
76 39 155 90 182 l35 19 6 -49 c16 -122 113 -195 319 -239 55 -11 131 -15 285
-15 237 0 326 13 432 62 64 30 227 138 318 210 28 22 50 40 51 40 1 1 58 -26
127 -59z"/>
<path d="M3475 3418 c-87 -95 -226 -279 -296 -393 -31 -49 -114 -194 -186
-321 -72 -126 -136 -240 -144 -252 -7 -11 -11 -23 -9 -25 6 -5 449 48 454 54
2 2 33 132 71 289 37 157 94 381 127 499 32 117 57 215 55 218 -3 2 -35 -29
-72 -69z"/>
</g>
</svg>
